<?xml version="1.0" encoding="utf-8"?>
<!DOCTYPE svg PUBLIC "-//W3C//DTD SVG 1.1//EN" "http://www.w3.org/Graphics/SVG/1.1/DTD/svg11.dtd">
<svg version="1.1" id="BackArrow8eb755" xmlns="http://www.w3.org/2000/svg" xmlns:xlink="http://www.w3.org/1999/xlink" 
     x="0px" y="0px" viewBox="0 0 477 477" enable-background="new 0 0 477 477" xml:space="preserve">
<path fill="#8eb755" d="M238.369,0C106.726,0,0,106.726,0,238.369c0,131.675,106.726,238.369,238.369,238.369
		c131.675,0,238.369-106.694,238.369-238.369C476.737,106.726,370.043,0,238.369,0z M289.221,330.252
		c6.198,6.198,6.198,16.273,0,22.47s-16.273,6.198-22.47,0L163.68,249.651c-3.115-3.115-4.64-7.183-4.64-11.283
		s1.526-8.168,4.64-11.283L266.75,124.015c6.198-6.198,16.273-6.198,22.47,0c6.198,6.198,6.198,16.273,0,22.47l-91.883,91.883
		L289.221,330.252z"/>
</svg>
