<?xml version="1.0" encoding="UTF-8" standalone="no"?>
<!-- Created with Inkscape (http://www.inkscape.org/) -->

<svg
   xmlns:dc="http://purl.org/dc/elements/1.1/"
   xmlns:cc="http://creativecommons.org/ns#"
   xmlns:rdf="http://www.w3.org/1999/02/22-rdf-syntax-ns#"
   xmlns:svg="http://www.w3.org/2000/svg"
   xmlns="http://www.w3.org/2000/svg"
   xmlns:sodipodi="http://sodipodi.sourceforge.net/DTD/sodipodi-0.dtd"
   xmlns:inkscape="http://www.inkscape.org/namespaces/inkscape"
   width="100"
   height="100"
   viewBox="0 0 744.09449 1052.3622"
   id="svg4169"
   version="1.1"
   inkscape:version="0.91 r13725"
   sodipodi:docname="down-arrow-go-ffffff.svg">
  <defs
     id="defs4171" />
  <sodipodi:namedview
     id="base"
     pagecolor="#ffffff"
     bordercolor="#666666"
     borderopacity="1.0"
     inkscape:pageopacity="0.0"
     inkscape:pageshadow="2"
     inkscape:zoom="0.35"
     inkscape:cx="-126.42857"
     inkscape:cy="520"
     inkscape:document-units="px"
     inkscape:current-layer="layer1"
     showgrid="false"
     inkscape:window-width="1920"
     inkscape:window-height="1018"
     inkscape:window-x="-8"
     inkscape:window-y="-8"
     inkscape:window-maximized="1" />
  <metadata
     id="metadata4174">
    <rdf:RDF>
      <cc:Work
         rdf:about="">
        <dc:format>image/svg+xml</dc:format>
        <dc:type
           rdf:resource="http://purl.org/dc/dcmitype/StillImage" />
        <dc:title></dc:title>
      </cc:Work>
    </rdf:RDF>
  </metadata>
  <g
     inkscape:label="Layer 1"
     inkscape:groupmode="layer"
     id="layer1">
    <path
       style="fill:#ffffff;fill-opacity:1"
       d="m 382.55992,594.63023 c -10.65513,-1.48201 -10.57896,-1.42357 -65.623,-50.33506 -31.72009,-28.1861 -49.58714,-44.4809 -51.4653,-46.93649 -1.62846,-2.12911 -3.60523,-5.73821 -4.55516,-8.3166 -1.45626,-3.95269 -1.67177,-5.3986 -1.62947,-10.93238 0.0393,-5.13644 0.32278,-7.08624 1.45717,-10.02135 4.2394,-10.96902 12.1756,-17.70503 23.69929,-20.11525 6.08954,-1.27365 1.75482,-1.24417 117.52313,-0.79919 75.59805,0.29057 82.37183,0.39924 86.85172,1.39328 7.1934,1.59613 13.002,4.67301 17.02499,9.01832 11.93552,12.89179 11.35622,31.88797 -1.35102,44.30208 -6.87646,6.71784 -96.24803,84.96885 -99.18524,86.84357 -6.19746,3.95563 -9.5987,5.15348 -17.61329,6.20308 -0.83511,0.10937 -3.14533,-0.0275 -5.13382,-0.30401 z"
       id="path3349"
       inkscape:connector-curvature="0" />
  </g>
</svg>
