<?xml version="1.0" encoding="UTF-8" standalone="no"?>
<svg
   xmlns:dc="http://purl.org/dc/elements/1.1/"
   xmlns:cc="http://creativecommons.org/ns#"
   xmlns:rdf="http://www.w3.org/1999/02/22-rdf-syntax-ns#"
   xmlns:svg="http://www.w3.org/2000/svg"
   xmlns="http://www.w3.org/2000/svg"
   xmlns:sodipodi="http://sodipodi.sourceforge.net/DTD/sodipodi-0.dtd"
   xmlns:inkscape="http://www.inkscape.org/namespaces/inkscape"
   version="1.1"
   id="Layer_1"
   x="0px"
   y="0px"
   width="512px"
   height="512px"
   viewBox="0 0 512 512"
   enable-background="new 0 0 512 512"
   xml:space="preserve"
   inkscape:version="0.91 r13725"
   sodipodi:docname="left-arrow-go-8eb755.svg"><metadata
   id="metadata3343"><rdf:RDF><cc:Work
       rdf:about=""><dc:format>image/svg+xml</dc:format><dc:type
         rdf:resource="http://purl.org/dc/dcmitype/StillImage" /><dc:title></dc:title></cc:Work></rdf:RDF></metadata><defs
   id="defs3341" /><sodipodi:namedview
   pagecolor="#ffffff"
   bordercolor="#666666"
   borderopacity="1"
   objecttolerance="10"
   gridtolerance="10"
   guidetolerance="10"
   inkscape:pageopacity="0"
   inkscape:pageshadow="2"
   inkscape:window-width="1920"
   inkscape:window-height="1018"
   id="namedview3339"
   showgrid="false"
   showguides="true"
   inkscape:guide-bbox="true"
   inkscape:zoom="1.6464844"
   inkscape:cx="256"
   inkscape:cy="256"
   inkscape:window-x="-8"
   inkscape:window-y="-8"
   inkscape:window-maximized="1"
   inkscape:current-layer="Layer_1"><sodipodi:guide
     position="181.59905,421.50415"
     orientation="1,0"
     id="guide3345" /><sodipodi:guide
     position="330.40095,283.02728"
     orientation="1,0"
     id="guide3347" /></sodipodi:namedview>
<path
   d="m 273.71733,373.117 -84.53,-96.249 c -1.034,-1.19 -1.408,-2.627 -2.25,-3.907 -1.158,-1.782 -2.281,-3.408 -3.065,-5.344 -0.842,-2.032 -1.216,-4.093 -1.594,-6.25 -0.343,-1.875 -0.717,-3.657 -0.717,-5.562 0,-2.221 0.406,-4.312 0.845,-6.471 0.403,-1.875 0.749,-3.656 1.437,-5.469 0.842,-2.061 2.062,-3.842 3.345,-5.719 0.812,-1.219 1.154,-2.594 2.153,-3.686 l 85.126,-95.719 c 11.75,-13.219 32,-14.406 45.251,-2.627 13.188,11.75 14.375,32 2.624,45.188 l -66.341,74.595 65.842,74.97 c 11.687,13.248 10.374,33.497 -2.905,45.155 -13.317,11.688 -33.535,10.375 -45.221,-2.905 z"
   id="path3337"
   inkscape:connector-curvature="0"
   style="fill:#8eb755" />
</svg>