<svg width="512" height="512" xmlns="http://www.w3.org/2000/svg">

 <g>
  <title>background</title>
  <rect fill="none" id="canvas_background" height="402" width="582" y="-1" x="-1"/>
 </g>
 <g>
  <title>Layer 1</title>
  <path stroke="null" id="svg_1" d="m490.854988,156.805008c-13.43,-31.109999 -31.619999,-58.139999 -54.569999,-81.089998s-49.979999,-41.139999 -81.089998,-54.569999s-64.174998,-20.145 -99.194998,-20.145c-23.459999,0 -46.069999,3.06 -67.829998,9.18s-42.074999,14.705 -60.944999,25.754999s-36.039999,24.309999 -51.509999,39.779999s-28.729999,32.639999 -39.779999,51.509999c-11.05,18.871666 -19.635,39.184999 -25.754999,60.944999c-6.12,21.759999 -9.18,44.369999 -9.18,67.829998s3.06,46.069999 9.18,67.829998c6.12,21.758333 14.705,42.072499 25.754999,60.944999c11.05,18.87 24.309999,36.040832 39.779999,51.509999c15.47,15.47 32.639999,28.731666 51.509999,39.779999c18.87,11.05 39.184999,19.634166 60.944999,25.754999c21.759999,6.12 44.369999,9.18 67.829998,9.18s46.069999,-3.06 67.829998,-9.18c21.759166,-6.121667 42.073332,-14.705 60.945832,-25.754999c18.87,-11.049166 36.040832,-24.309999 51.509999,-39.779999c15.47,-15.469166 28.731666,-32.639999 39.779999,-51.509999c11.05,-18.871666 19.634166,-39.185832 25.754999,-60.945832c6.119167,-21.759166 9.179166,-44.369166 9.179166,-67.829165c0,-35.019999 -6.715,-68.084998 -20.145,-99.194998zm-94.093331,92.564998c0,1.7 -0.850833,3.4 -2.551667,5.1c-2.038333,1.36 -3.908333,1.53 -5.608333,0.51l-107.100831,-36.209999c-2.378333,-1.02 -3.738333,-2.72 -4.08,-5.1s0.510833,-4.42 2.55,-6.12l24.989999,-17.85l4.08,-3.06c-7.481666,-5.78 -15.811666,-10.37 -24.989999,-13.77s-18.871666,-5.1 -29.069999,-5.1c-12.24,0 -23.714999,2.295 -34.424999,6.885c-10.71,4.59 -20.06,10.88 -28.049999,18.87s-14.28,17.34 -18.87,28.049999s-6.885,22.184999 -6.885,34.424999c0,12.240833 2.295,23.630833 6.885,34.169999c4.59,10.54 10.88,19.805 18.87,27.794999s17.34,14.28 28.049999,18.87c10.71,4.59 22.184999,6.885 34.424999,6.885c14.620833,0 28.389999,-3.4 41.309999,-10.1975c12.920833,-6.8 23.459999,-16.32 31.619999,-28.559999c1.36,-1.7 3.145833,-2.805833 5.355,-3.315c2.21,-0.510833 4.165,-0.086667 5.865,1.2725l37.229999,26.009999c1.3625,1.0225 2.380833,2.5525 3.061667,4.5925c0.338333,2.0375 0,3.9075 -1.021667,5.6075c-14.279166,20.4 -32.214999,36.464999 -53.802499,48.194999c-21.590833,11.73 -44.797499,17.595 -69.617498,17.595c-20.4,0 -39.694999,-3.91 -57.884999,-11.73s-33.999999,-18.445 -47.429999,-31.874999c-13.43,-13.43 -24.054999,-29.239999 -31.874999,-47.429999s-11.73,-37.484166 -11.73,-57.884999c0,-20.4 3.91,-39.694999 11.73,-57.884999s18.445,-33.999999 31.874999,-47.429999c13.43,-13.43 29.239999,-24.054999 47.429999,-31.874999s37.484999,-11.73 57.884999,-11.73s39.524999,3.91 57.374999,11.73s33.574999,18.36 47.174999,31.619999l2.0375,-1.02l24.989999,-18.36c2.72,-1.36 4.93,-1.36 6.63,0c2.38,1.36 3.57,3.23 3.57,5.61l0.001667,0l0.001667,112.709997l0,0z" fill="#8eb755"/>
 </g>
</svg>