<svg version="1.1" id="Layer_1" xmlns="http://www.w3.org/2000/svg" xmlns:xlink="http://www.w3.org/1999/xlink" x="0px" y="0px"
	 width="512px" height="512px" viewBox="0 0 512 512" enable-background="new 0 0 512 512" xml:space="preserve">
<path fill="#8eb755" d="M238.281,373.117l84.53-96.249c1.034-1.19,1.408-2.627,2.25-3.907c1.158-1.782,2.281-3.408,3.065-5.344
	c0.842-2.032,1.216-4.093,1.594-6.25c0.343-1.875,0.717-3.657,0.717-5.562c0-2.221-0.406-4.312-0.845-6.471
	c-0.403-1.875-0.749-3.656-1.437-5.469c-0.842-2.061-2.062-3.842-3.345-5.719c-0.812-1.219-1.154-2.594-2.153-3.686l-85.126-95.719
	c-11.75-13.219-32-14.406-45.251-2.627c-13.188,11.75-14.375,32-2.624,45.188l66.341,74.595l-65.842,74.97
	c-11.687,13.248-10.374,33.497,2.905,45.155C206.377,387.71,226.595,386.397,238.281,373.117z"/>
</svg>
