<?xml version="1.0" encoding="UTF-8" standalone="no"?>
<!DOCTYPE svg PUBLIC "-//W3C//DTD SVG 1.1//EN" "http://www.w3.org/Graphics/SVG/1.1/DTD/svg11.dtd">
<svg version="1.1" id="Table8eb755" xmlns="http://www.w3.org/2000/svg" xmlns:xlink="http://www.w3.org/1999/xlink"
   viewBox="0 -256 1792 1792" width="100%" height="100%">

    <path fill="#8eb755"
       d="m 512,160 v 192 q 0,14 -9,23 -9,9 -23,9 H 160 q -14,0 -23,-9 -9,-9 -9,-23 V 160 q 0,-14 9,-23 9,-9 23,-9 h 
       320 q 14,0 23,9 9,9 9,23 z m 0,384 v 192 q 0,14 -9,23 -9,9 -23,9 H 160 q -14,0 -23,-9 -9,-9 -9,-23 V 544 q 
       0,-14 9,-23 9,-9 23,-9 h 320 q 14,0 23,9 9,9 9,23 z m 512,-384 v 192 q 0,14 -9,23 -9,9 -23,9 H 672 q -14,0 
       -23,-9 -9,-9 -9,-23 V 160 q 0,-14 9,-23 9,-9 23,-9 h 320 q 14,0 23,9 9,9 9,23 z M 512,928 v 192 q 0,14 -9,23 
       -9,9 -23,9 H 160 q -14,0 -23,-9 -9,-9 -9,-23 V 928 q 0,-14 9,-23 9,-9 23,-9 h 320 q 14,0 23,9 9,9 9,23 z m 
       512,-384 v 192 q 0,14 -9,23 -9,9 -23,9 H 672 q -14,0 -23,-9 -9,-9 -9,-23 V 544 q 0,-14 9,-23 9,-9 23,-9 h 
       320 q 14,0 23,9 9,9 9,23 z m 512,-384 v 192 q 0,14 -9,23 -9,9 -23,9 h -320 q -14,0 -23,-9 -9,-9 -9,-23 V 160 
       q 0,-14 9,-23 9,-9 23,-9 h 320 q 14,0 23,9 9,9 9,23 z m -512,768 v 192 q 0,14 -9,23 -9,9 -23,9 H 672 q -14,0 
       -23,-9 -9,-9 -9,-23 V 928 q 0,-14 9,-23 9,-9 23,-9 h 320 q 14,0 23,9 9,9 9,23 z m 512,-384 v 192 q 0,14 -9,23 
       -9,9 -23,9 h -320 q -14,0 -23,-9 -9,-9 -9,-23 V 544 q 0,-14 9,-23 9,-9 23,-9 h 320 q 14,0 23,9 9,9 9,23 z m 0,384 v 
       192 q 0,14 -9,23 -9,9 -23,9 h -320 q -14,0 -23,-9 -9,-9 -9,-23 V 928 q 0,-14 9,-23 9,-9 23,-9 h 320 q 14,0 23,9 9,9 
       9,23 z m 128,320 V 160 Q 1664,94 1617,47 1570,0 1504,0 H 160 Q 94,0 47,47 0,94 0,160 v 1088 q 0,66 47,113 47,47 113,47 
       h 1344 q 66,0 113,-47 47,-47 47,-113 z" />
</svg>
